<?xml version="1.0" encoding="utf-8"?>
<!-- Generator: Adobe Illustrator 23.0.0, SVG Export Plug-In . SVG Version: 6.00 Build 0)  -->
<svg version="1.1" id="Layer_1" xmlns="http://www.w3.org/2000/svg" xmlns:xlink="http://www.w3.org/1999/xlink" x="0px" y="0px"
	 viewBox="0 0 726 726" style="enable-background:new 0 0 726 726;" xml:space="preserve">
<style type="text/css">
	.st0{fill:#F7931E;}
	.st1{fill:none;stroke:#000000;stroke-miterlimit:10;}
	.st2{fill:#FFFFFF;}
	.st3{fill:#FDC300;}
	.st4{fill:#FCE300;}
	.st5{fill:#FCB400;}
</style>
<g>
	<g>
		
			<image style="overflow:visible;opacity:0.55;" width="726" height="726" xlink:href="5C336128.png"  transform="matrix(1 0 0 1 2 2)">
		</image>
		<g>
			<path class="st0" d="M363,713L363,713C169.7,713,13,556.3,13,363v0C13,169.7,169.7,13,363,13h0c193.3,0,350,156.7,350,350v0
				C713,556.3,556.3,713,363,713z"/>
			<path class="st1" d="M363,713L363,713C169.7,713,13,556.3,13,363v0C13,169.7,169.7,13,363,13h0c193.3,0,350,156.7,350,350v0
				C713,556.3,556.3,713,363,713z"/>
			<path class="st0" d="M363,713L363,713C169.7,713,13,556.3,13,363v0C13,169.7,169.7,13,363,13h0c193.3,0,350,156.7,350,350v0
				C713,556.3,556.3,713,363,713z"/>
			<path class="st0" d="M363,713L363,713C169.7,713,13,556.3,13,363v0C13,169.7,169.7,13,363,13h0c193.3,0,350,156.7,350,350v0
				C713,556.3,556.3,713,363,713z"/>
			<path class="st0" d="M363,713L363,713C169.7,713,13,556.3,13,363v0C13,169.7,169.7,13,363,13h0c193.3,0,350,156.7,350,350v0
				C713,556.3,556.3,713,363,713z"/>
			<path class="st0" d="M363,713L363,713C169.7,713,13,556.3,13,363v0C13,169.7,169.7,13,363,13h0c193.3,0,350,156.7,350,350v0
				C713,556.3,556.3,713,363,713z"/>
			<path class="st0" d="M363,713L363,713C169.7,713,13,556.3,13,363v0C13,169.7,169.7,13,363,13h0c193.3,0,350,156.7,350,350v0
				C713,556.3,556.3,713,363,713z"/>
			<path class="st0" d="M363,713L363,713C169.7,713,13,556.3,13,363v0C13,169.7,169.7,13,363,13h0c193.3,0,350,156.7,350,350v0
				C713,556.3,556.3,713,363,713z"/>
			<path class="st0" d="M363,713L363,713C169.7,713,13,556.3,13,363v0C13,169.7,169.7,13,363,13h0c193.3,0,350,156.7,350,350v0
				C713,556.3,556.3,713,363,713z"/>
			<path class="st0" d="M363,713L363,713C169.7,713,13,556.3,13,363v0C13,169.7,169.7,13,363,13h0c193.3,0,350,156.7,350,350v0
				C713,556.3,556.3,713,363,713z"/>
			<path class="st2" d="M363,713L363,713C169.7,713,13,556.3,13,363v0C13,169.7,169.7,13,363,13h0c193.3,0,350,156.7,350,350v0
				C713,556.3,556.3,713,363,713z"/>
		</g>
	</g>
	<g>
		<path class="st3" d="M278.8,176.3c-1-3.5-1.5-7.1-1.2-10.8c1-11.5,6.1-22.6,10.6-33.1c5.6-13.2,13.1-25.8,23.4-35.9
			c6.3-6.2,13.7-11.4,22.3-13.5c8.3-2,17.3-0.8,25.2,2.5c7.9,3.3,14.9,8.5,21,14.6c13,12.9,22.1,29.6,25.9,47.5
			c3.8,17.9,2.2,36.9-4.4,54c-3.9,9.9-9.7,19.5-18.7,25.4c-9.3,6.1-21,7.5-31.9,5.5c-23.7-4.2-44.6-20.5-60.9-37.5
			C285.2,189.7,280.9,183.3,278.8,176.3z"/>
	</g>
	<g>
		<path class="st4" d="M347.2,152.3c-0.2-0.8-0.3-1.7-0.3-2.6c0.2-2.7,1.4-5.3,2.5-7.8c1.3-3.1,3.1-6.1,5.5-8.4
			c1.5-1.4,3.2-2.7,5.2-3.2c2-0.5,4.1-0.2,5.9,0.6c1.9,0.8,3.5,2,4.9,3.4c3.1,3,5.2,7,6.1,11.2c0.9,4.2,0.5,8.7-1,12.7
			c-0.9,2.3-2.3,4.6-4.4,6c-2.2,1.4-4.9,1.8-7.5,1.3c-5.6-1-10.5-4.8-14.3-8.8C348.7,155.4,347.7,153.9,347.2,152.3z"/>
	</g>
	<g>
		<path class="st3" d="M217.6,274.9c5.9-12.6,18.2-21.4,33.2-27.2c60.7-23.5,126.5-9.4,186.6,8.7c22.9,6.9,56.3,17.8,57.6,46.7
			c0.5,10.6-3.8,20.7-8.6,30.2c-25,49.3-75.7,108.8-136.4,106.9c-22.6-0.7-42.4-12.7-58.6-27.7c-12.3-11.4-23.9-23.3-35-35.9
			c-10.2-11.7-19-25.5-27.3-38.7c-7.3-11.7-13.6-24.5-15.1-38.3C212.9,290,214.3,281.8,217.6,274.9z"/>
	</g>
	<g>
		<path class="st4" d="M343.3,290.1c1.7-3.7,5.3-6.3,9.8-8c17.9-6.9,37.2-2.8,54.9,2.6c6.7,2,16.6,5.3,17,13.7
			c0.1,3.1-1.1,6.1-2.5,8.9c-7.4,14.5-22.3,32-40.1,31.4c-6.6-0.2-12.5-3.7-17.3-8.2c-3.6-3.4-7-6.9-10.3-10.6
			c-3-3.4-5.6-7.5-8-11.4c-2.2-3.4-4-7.2-4.5-11.3C341.9,294.5,342.3,292.1,343.3,290.1z"/>
	</g>
	<g>
		<path class="st3" d="M581.6,513.4C533.8,607.8,413.3,646,313.9,629.8c-2.1-0.4-4.3-0.8-6.5-1.2c-7.2-1.4-14.3-3-21.3-5.1
			c-2.4-0.7-4.8-1.4-7.1-2.1c-27.2-8.9-52.8-22.9-74.9-41.2c-19.9-16.5-49.1-43.7-39.8-72.8c15.1-47.2,102-47.2,140.3-51.9
			c45.8-5.6,91.8-10.3,137.9-14c37.1-2.9,78.3-12,114.7,0.5c1,0.3,2,0.7,3,1.1c12.2,4.6,23.3,13.2,27.9,25.4
			C593.6,483,588.6,499.4,581.6,513.4z"/>
	</g>
	<g>
		<path class="st4" d="M425.2,490.6c2.8-8.6,18.7-8.6,25.7-9.5c8.4-1,16.8-1.9,25.2-2.6c7-0.6,14.7-2.3,21.6,0.3
			c2.2,0.8,4.3,2.4,5.1,4.6c1,2.7,0.1,5.7-1.2,8.2c-8.7,17.3-30.8,24.3-49,21.3c-0.4-0.1-0.8-0.1-1.2-0.2c-1.8-0.3-3.5-0.8-5.2-1.3
			c-5-1.6-9.7-4.2-13.7-7.5C428.8,500.9,423.5,496,425.2,490.6z"/>
	</g>
</g>
<path class="st5" d="M581.2,514.4C533.9,607.9,414.5,645.8,316,629.7c-2.1-0.4-4.2-0.8-6.5-1.2c-7.1-1.3-14.2-3-21.1-5
	c0-5.1,1.3-9.5,3.9-12.5c7.8-8.7,26.2-2.9,38.5,0c74.3,17.3,147.2-20.3,163.7-28.9c43.2-22.3,84.7-62.9,77-86.7
	c-3.7-11.5-16.8-13.7-19.3-28.9c-1.3-7.6,0.7-15.8,4.6-22.9c1,0.3,2,0.7,3,1.1c12,4.5,23.1,13.1,27.6,25.1
	C593.1,484.3,588.1,500.6,581.2,514.4z"/>
</svg>
